<svg width="206" height="206" viewBox="0 0 206 206" fill="none" xmlns="http://www.w3.org/2000/svg">
<circle cx="103" cy="103" r="99" fill="#0A616F" stroke="white" stroke-width="8"/>
<path d="M123.126 52.2405L111.463 57.2147L111.244 56.554L110.422 54.0824L107.859 54.5494L97.5673 56.4249L96.5441 56.6114L95.8559 57.3912L89.306 64.8123L78.6818 67.4025L77.8185 67.613L77.209 68.2598L61.601 84.8239L8.48955 115.774L6.7179 116.806L7.03641 118.832C14.3444 165.308 54.5659 200.853 103.095 200.853C146.613 200.853 183.446 172.27 195.861 132.862L196.554 130.664L194.609 129.428L164.149 110.074L162.502 100.446L162.17 98.5036L160.256 98.0369L150.329 95.6166L142.197 71.1657L139.74 55.7775L139.376 53.4958L137.077 53.2653L124.602 52.015L123.835 51.9381L123.126 52.2405Z" fill="white" stroke="white" stroke-width="6"/>
<path d="M22.9688 125.391C22.9688 124.232 23.1901 123.145 23.6328 122.129C24.0755 121.113 24.6745 120.228 25.4297 119.473C26.1979 118.704 27.0898 118.099 28.1055 117.656C29.1211 117.214 30.2083 116.992 31.3672 116.992H44.2188V122.598H31.3672C30.9766 122.598 30.612 122.669 30.2734 122.812C29.9349 122.956 29.6354 123.158 29.375 123.418C29.1276 123.665 28.9323 123.958 28.7891 124.297C28.6458 124.635 28.5742 125 28.5742 125.391C28.5742 125.781 28.6458 126.152 28.7891 126.504C28.9323 126.842 29.1276 127.142 29.375 127.402C29.6354 127.65 29.9349 127.845 30.2734 127.988C30.612 128.132 30.9766 128.203 31.3672 128.203H36.9727C38.1315 128.203 39.2188 128.424 40.2344 128.867C41.263 129.297 42.1549 129.896 42.9102 130.664C43.6784 131.419 44.2773 132.311 44.707 133.34C45.1497 134.355 45.3711 135.443 45.3711 136.602C45.3711 137.76 45.1497 138.848 44.707 139.863C44.2773 140.879 43.6784 141.771 42.9102 142.539C42.1549 143.294 41.263 143.893 40.2344 144.336C39.2188 144.779 38.1315 145 36.9727 145H24.5312V139.395H36.9727C37.3633 139.395 37.7279 139.323 38.0664 139.18C38.4049 139.036 38.6979 138.841 38.9453 138.594C39.2057 138.333 39.4076 138.034 39.5508 137.695C39.694 137.357 39.7656 136.992 39.7656 136.602C39.7656 136.211 39.694 135.846 39.5508 135.508C39.4076 135.169 39.2057 134.876 38.9453 134.629C38.6979 134.368 38.4049 134.167 38.0664 134.023C37.7279 133.88 37.3633 133.809 36.9727 133.809H31.3672C30.2083 133.809 29.1211 133.587 28.1055 133.145C27.0898 132.702 26.1979 132.103 25.4297 131.348C24.6745 130.579 24.0755 129.688 23.6328 128.672C23.1901 127.643 22.9688 126.549 22.9688 125.391ZM73.1523 133.809C73.1523 135.358 72.8594 136.816 72.2734 138.184C71.6875 139.538 70.8867 140.723 69.8711 141.738C68.8555 142.741 67.6641 143.535 66.2969 144.121C64.9427 144.707 63.4909 145 61.9414 145C60.3919 145 58.9336 144.707 57.5664 144.121C56.2122 143.535 55.0273 142.741 54.0117 141.738C53.0091 140.723 52.2148 139.538 51.6289 138.184C51.043 136.816 50.75 135.358 50.75 133.809V116.992H56.3359V133.809C56.3359 134.577 56.4792 135.299 56.7656 135.977C57.0651 136.654 57.4688 137.246 57.9766 137.754C58.4844 138.262 59.0768 138.665 59.7539 138.965C60.444 139.251 61.1732 139.395 61.9414 139.395C62.7096 139.395 63.4323 139.251 64.1094 138.965C64.7995 138.665 65.3984 138.262 65.9062 137.754C66.4141 137.246 66.8112 136.654 67.0977 135.977C67.3971 135.299 67.5469 134.577 67.5469 133.809V116.992H73.1523V133.809ZM107.809 145H102.223V125C102.223 124.609 102.145 124.245 101.988 123.906C101.845 123.568 101.643 123.275 101.383 123.027C101.135 122.767 100.842 122.565 100.504 122.422C100.165 122.279 99.8008 122.207 99.4102 122.207C99.0195 122.207 98.6549 122.279 98.3164 122.422C97.9779 122.565 97.6784 122.767 97.418 123.027C97.1706 123.275 96.9753 123.568 96.832 123.906C96.6888 124.245 96.6172 124.609 96.6172 125V145H91.0117V125C91.0117 124.609 90.9401 124.245 90.7969 123.906C90.6536 123.568 90.4518 123.275 90.1914 123.027C89.944 122.767 89.651 122.565 89.3125 122.422C88.974 122.279 88.6094 122.207 88.2188 122.207C87.8281 122.207 87.4635 122.279 87.125 122.422C86.7865 122.565 86.487 122.767 86.2266 123.027C85.9792 123.275 85.7839 123.568 85.6406 123.906C85.4974 124.245 85.4258 124.609 85.4258 125V145H79.8203V125C79.8203 123.841 80.0352 122.754 80.4648 121.738C80.9076 120.71 81.5065 119.818 82.2617 119.062C83.0299 118.294 83.9219 117.695 84.9375 117.266C85.9661 116.823 87.0599 116.602 88.2188 116.602C89.2604 116.602 90.263 116.79 91.2266 117.168C92.1901 117.533 93.056 118.066 93.8242 118.77C94.5924 118.066 95.4518 117.533 96.4023 117.168C97.3659 116.79 98.3685 116.602 99.4102 116.602C100.569 116.602 101.656 116.823 102.672 117.266C103.701 117.695 104.592 118.294 105.348 119.062C106.116 119.818 106.715 120.71 107.145 121.738C107.587 122.754 107.809 123.841 107.809 125V145ZM142.621 145H137.035V125C137.035 124.609 136.957 124.245 136.801 123.906C136.658 123.568 136.456 123.275 136.195 123.027C135.948 122.767 135.655 122.565 135.316 122.422C134.978 122.279 134.613 122.207 134.223 122.207C133.832 122.207 133.467 122.279 133.129 122.422C132.79 122.565 132.491 122.767 132.23 123.027C131.983 123.275 131.788 123.568 131.645 123.906C131.501 124.245 131.43 124.609 131.43 125V145H125.824V125C125.824 124.609 125.753 124.245 125.609 123.906C125.466 123.568 125.264 123.275 125.004 123.027C124.757 122.767 124.464 122.565 124.125 122.422C123.786 122.279 123.422 122.207 123.031 122.207C122.641 122.207 122.276 122.279 121.938 122.422C121.599 122.565 121.299 122.767 121.039 123.027C120.792 123.275 120.596 123.568 120.453 123.906C120.31 124.245 120.238 124.609 120.238 125V145H114.633V125C114.633 123.841 114.848 122.754 115.277 121.738C115.72 120.71 116.319 119.818 117.074 119.062C117.842 118.294 118.734 117.695 119.75 117.266C120.779 116.823 121.872 116.602 123.031 116.602C124.073 116.602 125.076 116.79 126.039 117.168C127.003 117.533 127.868 118.066 128.637 118.77C129.405 118.066 130.264 117.533 131.215 117.168C132.178 116.79 133.181 116.602 134.223 116.602C135.382 116.602 136.469 116.823 137.484 117.266C138.513 117.695 139.405 118.294 140.16 119.062C140.928 119.818 141.527 120.71 141.957 121.738C142.4 122.754 142.621 123.841 142.621 125V145ZM155.246 145H149.641V116.992H155.246V145ZM174.219 145H168.633V122.598H160.215V116.992H182.617V122.598H174.219V145Z" fill="#0A616F"/>
<circle cx="102.5" cy="103.5" r="91.5" stroke="#0A616F" stroke-width="8"/>
</svg>
