<svg viewBox="0 0 512 512" fill="none" xmlns="http://www.w3.org/2000/svg">
<path d="M22.8953 43.7455C34.692 43.7455 44.2906 34.308 44.2906 22.6227C44.2906 10.9375 34.692 1.5 22.8953 1.5C11.0986 1.5 1.5 10.9375 1.5 22.6227C1.5 34.308 11.0986 43.7455 22.8953 43.7455Z" fill="#0A616F" stroke="white" stroke-width="3"/>
<path d="M26.775 11.3255L25.1926 11.9911L25.0335 11.5195L23.7602 11.7483L21.6048 12.1357L21.0966 12.2271L20.7524 12.6118L19.5622 13.9418L17.6006 14.4135L17.1715 14.5167L16.8667 14.8358L13.6851 18.166L2.67136 24.4961L1.77471 25.0115L1.93753 26.0328C3.53735 36.0677 12.3325 43.7153 22.9152 43.7153C32.4066 43.7153 40.456 37.5653 43.1723 29.0611L43.5266 27.9519L42.54 27.3336L36.4927 23.5439L36.2151 21.9434L36.0466 20.9718L35.0879 20.7412L33.4771 20.3539L31.9527 15.8329L31.4499 12.7267L31.2655 11.5872L30.1168 11.4737L27.5042 11.2154L27.1256 11.178L26.775 11.3255Z" fill="white" stroke="white" stroke-width="3"/>
<path d="M6.95239 25.0781C6.95239 24.8464 6.99666 24.6289 7.0852 24.4258C7.17374 24.2227 7.29353 24.0456 7.44458 23.8945C7.59822 23.7409 7.77661 23.6198 7.97973 23.5312C8.18286 23.4427 8.40031 23.3984 8.63208 23.3984H11.2024V24.5195H8.63208C8.55395 24.5195 8.48103 24.5339 8.41333 24.5625C8.34562 24.5911 8.28572 24.6315 8.23364 24.6836C8.18416 24.7331 8.1451 24.7917 8.11645 24.8594C8.08781 24.9271 8.07348 25 8.07348 25.0781C8.07348 25.1562 8.08781 25.2305 8.11645 25.3008C8.1451 25.3685 8.18416 25.4284 8.23364 25.4805C8.28572 25.5299 8.34562 25.569 8.41333 25.5977C8.48103 25.6263 8.55395 25.6406 8.63208 25.6406H9.75317C9.98494 25.6406 10.2024 25.6849 10.4055 25.7734C10.6112 25.8594 10.7896 25.9792 10.9407 26.1328C11.0943 26.2839 11.2141 26.4622 11.3 26.668C11.3886 26.8711 11.4329 27.0885 11.4329 27.3203C11.4329 27.5521 11.3886 27.7695 11.3 27.9727C11.2141 28.1758 11.0943 28.3542 10.9407 28.5078C10.7896 28.6589 10.6112 28.7786 10.4055 28.8672C10.2024 28.9557 9.98494 29 9.75317 29H7.26489V27.8789H9.75317C9.8313 27.8789 9.90421 27.8646 9.97192 27.8359C10.0396 27.8073 10.0982 27.7682 10.1477 27.7188C10.1998 27.6667 10.2401 27.6068 10.2688 27.5391C10.2974 27.4714 10.3118 27.3984 10.3118 27.3203C10.3118 27.2422 10.2974 27.1693 10.2688 27.1016C10.2401 27.0339 10.1998 26.9753 10.1477 26.9258C10.0982 26.8737 10.0396 26.8333 9.97192 26.8047C9.90421 26.776 9.8313 26.7617 9.75317 26.7617H8.63208C8.40031 26.7617 8.18286 26.7174 7.97973 26.6289C7.77661 26.5404 7.59822 26.4206 7.44458 26.2695C7.29353 26.1159 7.17374 25.9375 7.0852 25.7344C6.99666 25.5286 6.95239 25.3099 6.95239 25.0781ZM16.9891 26.7617C16.9891 27.0716 16.9305 27.3633 16.8133 27.6367C16.6961 27.9076 16.536 28.1445 16.3329 28.3477C16.1297 28.5482 15.8915 28.707 15.618 28.8242C15.3472 28.9414 15.0568 29 14.7469 29C14.437 29 14.1454 28.9414 13.8719 28.8242C13.6011 28.707 13.3641 28.5482 13.161 28.3477C12.9605 28.1445 12.8016 27.9076 12.6844 27.6367C12.5672 27.3633 12.5086 27.0716 12.5086 26.7617V23.3984H13.6258V26.7617C13.6258 26.9154 13.6545 27.0599 13.7118 27.1953C13.7717 27.3307 13.8524 27.4492 13.954 27.5508C14.0555 27.6523 14.174 27.7331 14.3094 27.793C14.4474 27.8503 14.5933 27.8789 14.7469 27.8789C14.9006 27.8789 15.0451 27.8503 15.1805 27.793C15.3185 27.7331 15.4383 27.6523 15.5399 27.5508C15.6415 27.4492 15.7209 27.3307 15.7782 27.1953C15.8381 27.0599 15.868 26.9154 15.868 26.7617V23.3984H16.9891V26.7617ZM23.9204 29H22.8032V25C22.8032 24.9219 22.7875 24.849 22.7563 24.7812C22.7276 24.7135 22.6873 24.6549 22.6352 24.6055C22.5857 24.5534 22.5271 24.513 22.4594 24.4844C22.3917 24.4557 22.3188 24.4414 22.2407 24.4414C22.1625 24.4414 22.0896 24.4557 22.0219 24.4844C21.9542 24.513 21.8943 24.5534 21.8422 24.6055C21.7928 24.6549 21.7537 24.7135 21.725 24.7812C21.6964 24.849 21.6821 24.9219 21.6821 25V29H20.561V25C20.561 24.9219 20.5467 24.849 20.518 24.7812C20.4894 24.7135 20.449 24.6549 20.3969 24.6055C20.3474 24.5534 20.2888 24.513 20.2211 24.4844C20.1534 24.4557 20.0805 24.4414 20.0024 24.4414C19.9243 24.4414 19.8513 24.4557 19.7836 24.4844C19.7159 24.513 19.656 24.5534 19.604 24.6055C19.5545 24.6549 19.5154 24.7135 19.4868 24.7812C19.4581 24.849 19.4438 24.9219 19.4438 25V29H18.3227V25C18.3227 24.7682 18.3657 24.5508 18.4516 24.3477C18.5401 24.1419 18.6599 23.9635 18.811 23.8125C18.9646 23.6589 19.143 23.5391 19.3461 23.4531C19.5519 23.3646 19.7706 23.3203 20.0024 23.3203C20.2107 23.3203 20.4112 23.3581 20.604 23.4336C20.7967 23.5065 20.9698 23.6133 21.1235 23.7539C21.2771 23.6133 21.449 23.5065 21.6391 23.4336C21.8318 23.3581 22.0323 23.3203 22.2407 23.3203C22.4724 23.3203 22.6899 23.3646 22.893 23.4531C23.0987 23.5391 23.2771 23.6589 23.4282 23.8125C23.5818 23.9635 23.7016 24.1419 23.7875 24.3477C23.8761 24.5508 23.9204 24.7682 23.9204 25V29ZM30.8829 29H29.7657V25C29.7657 24.9219 29.75 24.849 29.7188 24.7812C29.6901 24.7135 29.6498 24.6549 29.5977 24.6055C29.5482 24.5534 29.4896 24.513 29.4219 24.4844C29.3542 24.4557 29.2813 24.4414 29.2032 24.4414C29.125 24.4414 29.0521 24.4557 28.9844 24.4844C28.9167 24.513 28.8568 24.5534 28.8047 24.6055C28.7553 24.6549 28.7162 24.7135 28.6875 24.7812C28.6589 24.849 28.6446 24.9219 28.6446 25V29H27.5235V25C27.5235 24.9219 27.5092 24.849 27.4805 24.7812C27.4519 24.7135 27.4115 24.6549 27.3594 24.6055C27.3099 24.5534 27.2513 24.513 27.1836 24.4844C27.1159 24.4557 27.043 24.4414 26.9649 24.4414C26.8868 24.4414 26.8138 24.4557 26.7461 24.4844C26.6784 24.513 26.6185 24.5534 26.5665 24.6055C26.517 24.6549 26.4779 24.7135 26.4493 24.7812C26.4206 24.849 26.4063 24.9219 26.4063 25V29H25.2852V25C25.2852 24.7682 25.3282 24.5508 25.4141 24.3477C25.5026 24.1419 25.6224 23.9635 25.7735 23.8125C25.9271 23.6589 26.1055 23.5391 26.3086 23.4531C26.5144 23.3646 26.7331 23.3203 26.9649 23.3203C27.1732 23.3203 27.3737 23.3581 27.5665 23.4336C27.7592 23.5065 27.9323 23.6133 28.086 23.7539C28.2396 23.6133 28.4115 23.5065 28.6016 23.4336C28.7943 23.3581 28.9948 23.3203 29.2032 23.3203C29.4349 23.3203 29.6524 23.3646 29.8555 23.4531C30.0612 23.5391 30.2396 23.6589 30.3907 23.8125C30.5443 23.9635 30.6641 24.1419 30.75 24.3477C30.8386 24.5508 30.8829 24.7682 30.8829 25V29ZM33.4079 29H32.2868V23.3984H33.4079V29ZM37.2024 29H36.0852V24.5195H34.4016V23.3984H38.8821V24.5195H37.2024V29Z" fill="#0A616F"/>
<path d="M41.5 23.274C41.5 33.3205 33.2368 41.5 23 41.5C12.7632 41.5 4.5 33.3205 4.5 23.274C4.5 13.2275 12.7632 5.04797 23 5.04797C33.2368 5.04797 41.5 13.2275 41.5 23.274Z" stroke="#0A616F" stroke-width="3"/>
</svg>
